<svg id="Calque_1" data-name="Calque 1" xmlns="http://www.w3.org/2000/svg" viewBox="0 0 500 500"><path d="M262,200a36,36,0,1,1-36,36,36,36,0,0,1,36-36m0-4a40,40,0,1,0,40,40,40,40,0,0,0-40-40Z"/><path d="M262,20A216,216,0,0,1,476.32,209H330A75,75,0,0,0,190,209H47.68A216,216,0,0,1,262,20m0-4C148.27,16,54.69,102.31,43.19,213H192.83a71,71,0,0,1,134.34,0H480.81C469.31,102.31,375.73,16,262,16Z"/><path d="M476.32,263a216,216,0,0,1-428.64,0H190A75,75,0,0,0,330,263H476.32m4.49-4H327.17a71,71,0,0,1-134.34,0H43.19C54.69,369.69,148.27,456,262,456s207.31-86.31,218.81-197Z"/></svg>